<?xml version="1.0" encoding="UTF-8"?>
<svg version="1.1" xmlns="http://www.w3.org/2000/svg" width="625" height="399">
<path d="M0 0 C1.09667999 -0.00419449 2.19335999 -0.00838898 3.32327271 -0.01271057 C4.52770523 -0.00709106 5.73213776 -0.00147156 6.97306824 0.00431824 C8.87654022 0.00147072 8.87654022 0.00147072 10.81846619 -0.00143433 C14.30990854 -0.00629289 17.80122349 0.001396 21.29265046 0.01151872 C24.97418197 0.02033392 28.65570985 0.01854076 32.33724976 0.01815796 C38.54904789 0.01909633 44.7607974 0.02778509 50.97257996 0.04142761 C58.07309175 0.05696826 65.17354964 0.06243221 72.27407724 0.06169206 C79.90474911 0.06100493 87.53540115 0.06803055 95.16606688 0.07713866 C97.3221563 0.07923216 99.47824233 0.07997468 101.63433266 0.08037758 C116.48925948 0.08589265 131.33816787 0.20820057 146.18742371 0.63273621 C147.41986974 0.66294515 148.65231577 0.69315409 149.92210865 0.72427845 C165.72390761 1.24136472 179.46341827 6.75159312 192.71598816 15.24723816 C193.04598816 16.23723816 193.37598816 17.22723816 193.71598816 18.24723816 C194.29348816 18.53598816 194.87098816 18.82473816 195.46598816 19.12223816 C198.50364953 20.64106884 200.37845166 22.79567548 202.71598816 25.24723816 C203.89161316 26.36098816 203.89161316 26.36098816 205.09098816 27.49723816 C212.94889952 35.72933578 217.00649165 43.97047502 221.01383972 54.49919128 C221.70884686 56.32687174 221.70884686 56.32687174 222.81364441 58.26676941 C224.24458621 61.40740791 224.73411883 64.74730158 225.34098816 68.12223816 C225.54208191 69.16444519 225.54208191 69.16444519 225.74723816 70.22770691 C226.49616483 74.28566672 226.8581769 78.12376457 226.71598816 82.24723816 C223.40972396 84.23109431 220.99944633 84.46385101 217.17301941 84.37223816 C216.09858582 84.35676941 215.02415222 84.34130066 213.91716003 84.32536316 C211.67756628 84.27372987 209.43798267 84.22165445 207.19841003 84.16911316 C186.434781 83.87195926 167.66548889 93.32382794 152.57145691 107.20426941 C150.80423439 109.15007441 149.73801007 110.84089026 148.71598816 113.24723816 C148.05598816 113.24723816 147.39598816 113.24723816 146.71598816 113.24723816 C146.31380066 114.45380066 146.31380066 114.45380066 145.90348816 115.68473816 C145.51161316 116.53036316 145.11973816 117.37598816 144.71598816 118.24723816 C143.72598816 118.57723816 142.73598816 118.90723816 141.71598816 119.24723816 C140.61253336 122.00841174 140.61253336 122.00841174 139.71598816 125.24723816 C138.90146081 127.27572454 138.06796114 129.29669225 137.21598816 131.30973816 C136.3808339 133.28813713 135.54741497 135.26726983 134.71598816 137.24723816 C134.35762878 138.05676941 133.99926941 138.86630066 133.63005066 139.70036316 C127.36147892 157.16663996 130.60071971 178.18990222 137.98161316 194.80973816 C140.65747453 200.11324719 144.01439028 204.62567368 147.71598816 209.24723816 C148.2818866 210.04903503 148.84778503 210.85083191 149.43083191 211.67692566 C153.70279269 217.64761908 158.54942539 221.34355149 164.71598816 225.24723816 C165.61833191 225.85696472 166.52067566 226.46669128 167.45036316 227.09489441 C183.61671366 237.84962758 202.57196177 242.04358559 221.84098816 239.68473816 C223.75911316 239.46817566 223.75911316 239.46817566 225.71598816 239.24723816 C226.04598816 239.57723816 226.37598816 239.90723816 226.71598816 240.24723816 C226.59737421 257.44626044 220.33660765 272.21510153 212.71598816 287.24723816 C212.05598816 287.24723816 211.39598816 287.24723816 210.71598816 287.24723816 C210.05598816 288.89723816 209.39598816 290.54723816 208.71598816 292.24723816 C208.05598816 292.24723816 207.39598816 292.24723816 206.71598816 292.24723816 C206.45817566 292.82989441 206.20036316 293.41255066 205.93473816 294.01286316 C204.61764799 296.42752846 203.16510432 298.06463993 201.21598816 299.99723816 C200.60755066 300.61083191 199.99911316 301.22442566 199.37223816 301.85661316 C197.71598816 303.24723816 197.71598816 303.24723816 195.71598816 303.24723816 C195.71598816 303.90723816 195.71598816 304.56723816 195.71598816 305.24723816 C189.28929366 310.03424519 182.0469035 313.78581374 174.77848816 317.12223816 C174.18423035 317.4080072 173.58997253 317.69377625 172.97770691 317.98820496 C161.67217225 322.956737 148.68177724 322.53926334 136.56266785 322.49015808 C134.99736451 322.49123403 133.43206157 322.49317734 131.86676025 322.49591064 C127.66300325 322.5007074 123.4593544 322.4931723 119.25561047 322.4829576 C114.84301078 322.47410678 110.43041377 322.47593579 106.01780701 322.47631836 C98.62437653 322.47538587 91.23098745 322.46675204 83.83757019 322.45304871 C75.28607486 322.43725772 66.73462457 322.43205322 58.18311572 322.43278426 C49.0635245 322.43345856 39.94395065 322.4265321 30.82436466 322.41733766 C28.19813789 322.4152051 25.5719139 322.41449636 22.94568634 322.41409874 C18.83174927 322.41309709 14.71785023 322.40701522 10.6039257 322.3969326 C9.09217753 322.39400423 7.58042499 322.39278291 6.06867409 322.39336014 C4.0119233 322.39384847 1.95528015 322.38821896 -0.10145569 322.38095093 C-1.83019613 322.37843716 -1.83019613 322.37843716 -3.59386063 322.37587261 C-6.28401184 322.24723816 -6.28401184 322.24723816 -8.28401184 321.24723816 C-8.44647278 307.46905607 -8.57071935 293.69110326 -8.64669704 279.91215706 C-8.6831698 273.51341452 -8.73261348 267.11532911 -8.81208801 260.71696472 C-8.88835697 254.53773958 -8.93004691 248.35914497 -8.94815254 242.17948532 C-8.96104893 239.82639012 -8.98623309 237.47332796 -9.02412224 235.12050247 C-9.36908946 212.80366118 -9.36908946 212.80366118 -3.05368042 205.91932678 C-2.46968979 205.36753754 -1.88569916 204.81574829 -1.28401184 204.24723816 C10.96803061 188.87610088 13.33654862 168.22719506 11.40739441 149.20426941 C9.8895001 140.75510552 6.13215865 132.99450671 2.54801941 125.25505066 C1.71598816 123.24723816 1.71598816 123.24723816 1.29020691 121.05192566 C1.10071472 120.45637878 0.91122253 119.86083191 0.71598816 119.24723816 C-0.27401184 118.91723816 -1.26401184 118.58723816 -2.28401184 118.24723816 C-3.38166809 116.68864441 -3.38166809 116.68864441 -4.34651184 114.80973816 C-5.54420582 112.5057405 -6.41554001 111.11570999 -8.28401184 109.24723816 C-8.53848743 107.33567047 -8.53848743 107.33567047 -8.54470825 104.95805359 C-8.55179306 104.0578801 -8.55887787 103.1577066 -8.56617737 102.23025513 C-8.56369995 101.24005875 -8.56122253 100.24986237 -8.55867004 99.22966003 C-8.56378098 98.18894852 -8.56889191 97.148237 -8.57415771 96.07598877 C-8.58810208 92.62259737 -8.58709344 89.16940443 -8.58479309 85.71598816 C-8.58867706 83.32467066 -8.5930111 80.93335386 -8.59777832 78.54203796 C-8.60525076 73.52496608 -8.60494162 68.50796455 -8.59968567 63.4908905 C-8.59388659 57.04750863 -8.6108279 50.60441379 -8.63403034 44.16107941 C-8.64872924 39.22156579 -8.64964469 34.28212194 -8.64652061 29.34259033 C-8.64703566 26.9662316 -8.6523075 24.58986914 -8.66233253 22.21353149 C-8.67460657 18.89710071 -8.66795982 15.58123732 -8.65632629 12.26481628 C-8.6677919 10.77952171 -8.6677919 10.77952171 -8.67948914 9.26422119 C-8.67247482 8.3640477 -8.66546051 7.46387421 -8.65823364 6.53642273 C-8.65840138 5.75180916 -8.65856913 4.96719559 -8.65874195 4.15880585 C-8.53508101 3.52798851 -8.41142008 2.89717117 -8.28401184 2.24723816 C-4.94281509 0.01977366 -3.89628546 -0.00222537 0 0 Z " fill="#3F1D59" transform="translate(292.2840118408203,38.75276184082031)"/>
<path d="M0 0 C0 29.04 0 58.08 0 88 C-5.19893611 87.25729484 -8.28866004 86.66868102 -12.8125 84.71875 C-19.91439772 82.38526932 -27.49067901 82.81667193 -34.875 82.8125 C-36.00808594 82.80025391 -37.14117187 82.78800781 -38.30859375 82.77539062 C-47.72369408 82.75902602 -55.5391157 84.29321886 -64.3125 87.5625 C-71.52444948 90.23623705 -71.52444948 90.23623705 -75 91 C-75 91.66 -75 92.32 -75 93 C-76.8359375 94.19140625 -76.8359375 94.19140625 -79.375 95.5625 C-88.37968241 100.82266101 -95.05289226 107.32872648 -100.625 116.12890625 C-101.07875 116.74636719 -101.5325 117.36382812 -102 118 C-102.66 118 -103.32 118 -104 118 C-104.3403125 119.1446875 -104.3403125 119.1446875 -104.6875 120.3125 C-105.78843706 123.4056089 -107.03076994 126.22997716 -108.4375 129.1875 C-116.5549415 146.8112078 -117.52271008 167.01473686 -110.81103516 185.24487305 C-110.03548941 187.28178956 -109.24169125 189.31018025 -108.4375 191.3359375 C-107.18349663 194.53228306 -106.05201293 197.73269063 -105 201 C-104.34 201 -103.68 201 -103 201 C-101.4921875 202.64453125 -101.4921875 202.64453125 -99.875 204.8125 C-99.33617187 205.52019531 -98.79734375 206.22789062 -98.2421875 206.95703125 C-97 209 -97 209 -97 212 C-96.34 212 -95.68 212 -95 212 C-93.84246792 213.44269053 -92.6851833 214.88558048 -91.52929688 216.32958984 C-88.85763412 219.24777576 -85.57669185 221.21328694 -82.25 223.3125 C-75.03149867 227.96850133 -75.03149867 227.96850133 -74 229 C-73.89946492 231.8250333 -73.86384284 234.62565285 -73.87060547 237.45117188 C-73.86797699 238.78034386 -73.86797699 238.78034386 -73.86529541 240.1363678 C-73.8608756 243.08051482 -73.86381533 246.02460231 -73.8671875 248.96875 C-73.8665145 251.00516776 -73.8655445 253.04158544 -73.86428833 255.07800293 C-73.86281118 259.35197716 -73.86496645 263.62593053 -73.86962891 267.89990234 C-73.8753262 273.39158539 -73.87204729 278.88321957 -73.86605644 284.37490082 C-73.86245128 288.58177054 -73.86358921 292.78862859 -73.86618423 296.99549866 C-73.86685363 299.02100124 -73.86602465 301.04650486 -73.86370468 303.07200623 C-73.8611789 305.8976423 -73.8650177 308.72319807 -73.87060547 311.54882812 C-73.86858124 312.39457901 -73.86655701 313.2403299 -73.86447144 314.11170959 C-73.88573759 319.88573759 -73.88573759 319.88573759 -75 321 C-77.61150288 321.10041457 -80.19658365 321.13617057 -82.80859375 321.12939453 C-84.03535324 321.13202301 -84.03535324 321.13202301 -85.28689575 321.13470459 C-88.0037851 321.13912385 -90.72060993 321.13618486 -93.4375 321.1328125 C-95.31697604 321.13348552 -97.19645199 321.13445553 -99.07592773 321.13571167 C-103.02035346 321.13718874 -106.96475658 321.13503379 -110.90917969 321.13037109 C-115.97712503 321.1246738 -121.04501742 321.12795276 -126.11296082 321.13394356 C-129.99556887 321.13754892 -133.87816428 321.1364107 -137.76077271 321.13381577 C-139.62997443 321.13314643 -141.49917728 321.13397516 -143.36837769 321.13629532 C-145.97608504 321.13882143 -148.58370541 321.13498184 -151.19140625 321.12939453 C-151.97170197 321.13141876 -152.75199768 321.13344299 -153.55593872 321.13552856 C-158.88573747 321.11426253 -158.88573747 321.11426253 -160 320 C-160.0979644 317.07957348 -160.12991899 314.18279018 -160.12025452 311.26194763 C-160.12110894 310.33412682 -160.12196337 309.40630601 -160.12284368 308.45036942 C-160.12450133 305.31642179 -160.11897248 302.18252675 -160.11352539 299.04858398 C-160.11324355 296.81201173 -160.11340118 294.57543939 -160.1139679 292.33886719 C-160.11425601 286.24613747 -160.10835707 280.15342725 -160.10139394 274.06070209 C-160.09516267 267.70120005 -160.09455678 261.34169761 -160.09336853 254.98219299 C-160.09060883 244.30135723 -160.0843533 233.6205292 -160.07543945 222.93969727 C-160.06626605 211.93644242 -160.05918487 200.93318953 -160.05493164 189.92993164 C-160.05466892 189.25214637 -160.05440619 188.5743611 -160.05413551 187.87603687 C-160.05283051 184.47592335 -160.05156679 181.0758098 -160.05032361 177.67569625 C-160.03995013 149.45045804 -160.02151137 121.22523205 -160 93 C-184.42 93 -208.84 93 -234 93 C-234 62.31 -234 31.62 -234 0 C-183.17787385 -0.29107747 -183.17787385 -0.29107747 -161.73632812 -0.40429688 C-146.98313358 -0.48225289 -132.22995187 -0.56134449 -117.47680664 -0.64819336 C-106.72796224 -0.71146419 -95.979104 -0.77062542 -85.23021108 -0.82505554 C-79.55020819 -0.85395599 -73.87023176 -0.88477559 -68.19026756 -0.92053413 C-62.81986511 -0.95427843 -57.44945955 -0.98243679 -52.0790062 -1.00670624 C-50.13107921 -1.0164219 -48.18316025 -1.02800326 -46.2352581 -1.04183006 C-30.77963676 -1.1497533 -15.47298728 -0.5730736 0 0 Z " fill="#3F1E59" transform="translate(259,40)"/>
<path d="M0 0 C2.73765384 2.45700461 5.39545667 4.98478421 8.01953125 7.5625 C8.51348389 8.04686523 9.00743652 8.53123047 9.51635742 9.03027344 C13.01953125 12.56757916 13.01953125 12.56757916 13.01953125 14.8125 C13.67953125 14.8125 14.33953125 14.8125 15.01953125 14.8125 C16.31888589 17.32962189 17.60907497 19.85079087 18.89453125 22.375 C19.44173828 23.43170898 19.44173828 23.43170898 20 24.50976562 C24.03542979 32.47056803 25.50174347 39.95959185 26.01953125 48.8125 C26.08333984 49.87404297 26.08333984 49.87404297 26.1484375 50.95703125 C26.2144264 53.2578444 26.13964017 55.51327217 26.01953125 57.8125 C25.96410156 58.98554688 25.90867187 60.15859375 25.8515625 61.3671875 C24.7318148 76.91044392 18.07258697 88.9416375 7.01953125 99.8125 C6.48070312 100.43253906 5.941875 101.05257812 5.38671875 101.69140625 C-5.35293417 113.75327775 -22.34356799 118.80221042 -37.9609375 120.05078125 C-52.40378318 120.38502494 -66.81678022 117.9362631 -78.98046875 109.8125 C-79.89699219 109.25175781 -79.89699219 109.25175781 -80.83203125 108.6796875 C-83.93389477 106.73911279 -86.5830462 104.57875679 -88.98046875 101.8125 C-88.98046875 101.1525 -88.98046875 100.4925 -88.98046875 99.8125 C-89.57214844 99.54953125 -90.16382813 99.2865625 -90.7734375 99.015625 C-100.03415676 93.96730371 -105.01911443 81.9391333 -108.0859375 72.359375 C-112.40055984 54.61473103 -110.65189527 36.20386898 -102.00390625 20.0390625 C-98.87584819 15.05107802 -95.13740074 10.95453259 -90.98046875 6.8125 C-90.40554687 6.17828125 -89.830625 5.5440625 -89.23828125 4.890625 C-67.18496531 -18.95650133 -24.78689315 -19.87271608 0 0 Z " fill="#BF6DFE" transform="translate(267.98046875,147.1875)"/>
<path d="M0 0 C0.804375 0.49242187 1.60875 0.98484375 2.4375 1.4921875 C16.8801084 10.92501611 26.95694006 23.484481 32 40 C33.1919357 46.08632166 33.18349079 52.13430279 33.1875 58.3125 C33.19974609 59.29412109 33.21199219 60.27574219 33.22460938 61.28710938 C33.25151111 74.83661639 29.75013439 88.28492315 21 99 C20.34 99 19.68 99 19 99 C18.731875 99.639375 18.46375 100.27875 18.1875 100.9375 C17 103 17 103 14 104 C12.79117904 106.00016466 12.79117904 106.00016466 12 108 C11.34 108 10.68 108 10 108 C9.74476563 108.6084375 9.48953125 109.216875 9.2265625 109.84375 C7.84412096 112.2740294 6.7605742 113.0933666 4.375 114.5 C3.42753906 115.07234375 3.42753906 115.07234375 2.4609375 115.65625 C1.64882813 116.0996875 0.83671875 116.543125 0 117 C-0.85972412 117.47904785 -0.85972412 117.47904785 -1.73681641 117.96777344 C-6.74265568 120.63539973 -11.57552682 122.14181465 -17.125 123.25 C-17.95612305 123.41765869 -18.78724609 123.58531738 -19.64355469 123.75805664 C-35.40170945 126.74191209 -51.48777642 125.08393287 -66 118 C-66.76054687 117.649375 -67.52109375 117.29875 -68.3046875 116.9375 C-82.53816497 109.47075772 -93.67300209 96.04847769 -99 81 C-104.1848617 63.76610746 -104.1438551 43.94449573 -95.625 27.9375 C-89.53837836 16.70630925 -81.26773721 9.39881064 -71 2 C-69.576875 0.948125 -69.576875 0.948125 -68.125 -0.125 C-49.22021835 -11.46786899 -18.92661853 -12.02628886 0 0 Z " fill="#BE6DFE" transform="translate(541,142)"/>
<path d="M0 0 C0 29.04 0 58.08 0 88 C-5.92243383 87.15393802 -9.64735202 86.15984041 -15 84 C-11 83 -11 83 -1 87 C-1 58.62 -1 30.24 -1 1 C-77.56 1 -154.12 1 -233 1 C-233 31.03 -233 61.06 -233 92 C-208.58 92 -184.16 92 -159 92 C-159 166.91 -159 241.82 -159 319 C-131.61 319 -104.22 319 -76 319 C-75.85802028 303.37659274 -75.85802028 303.37659274 -75.81835938 287.75390625 C-75.82485981 281.37808711 -75.81957156 275.00385035 -75.74291992 268.62841797 C-75.68184537 263.48595276 -75.6746141 258.34593143 -75.70416832 253.20321655 C-75.70606684 251.24482661 -75.68880538 249.2863183 -75.65177345 247.32827759 C-75.09904931 236.53411439 -75.09904931 236.53411439 -79.3531189 227.10473633 C-82.15350876 225.04835225 -84.88856613 223.53044193 -88 222 C-89.75216338 220.76106569 -91.48552173 219.4945213 -93.1875 218.1875 C-93.92355469 217.64480469 -94.65960938 217.10210937 -95.41796875 216.54296875 C-95.94003906 216.03378906 -96.46210938 215.52460938 -97 215 C-97 214.01 -97 213.02 -97 212 C-96.34 212 -95.68 212 -95 212 C-93.84246792 213.44269053 -92.6851833 214.88558048 -91.52929688 216.32958984 C-88.85763412 219.24777576 -85.57669185 221.21328694 -82.25 223.3125 C-75.03149867 227.96850133 -75.03149867 227.96850133 -74 229 C-73.89946492 231.8250333 -73.86384284 234.62565285 -73.87060547 237.45117188 C-73.86797699 238.78034386 -73.86797699 238.78034386 -73.86529541 240.1363678 C-73.8608756 243.08051482 -73.86381533 246.02460231 -73.8671875 248.96875 C-73.8665145 251.00516776 -73.8655445 253.04158544 -73.86428833 255.07800293 C-73.86281118 259.35197716 -73.86496645 263.62593053 -73.86962891 267.89990234 C-73.8753262 273.39158539 -73.87204729 278.88321957 -73.86605644 284.37490082 C-73.86245128 288.58177054 -73.86358921 292.78862859 -73.86618423 296.99549866 C-73.86685363 299.02100124 -73.86602465 301.04650486 -73.86370468 303.07200623 C-73.8611789 305.8976423 -73.8650177 308.72319807 -73.87060547 311.54882812 C-73.86858124 312.39457901 -73.86655701 313.2403299 -73.86447144 314.11170959 C-73.88573759 319.88573759 -73.88573759 319.88573759 -75 321 C-77.61150288 321.10041457 -80.19658365 321.13617057 -82.80859375 321.12939453 C-84.03535324 321.13202301 -84.03535324 321.13202301 -85.28689575 321.13470459 C-88.0037851 321.13912385 -90.72060993 321.13618486 -93.4375 321.1328125 C-95.31697604 321.13348552 -97.19645199 321.13445553 -99.07592773 321.13571167 C-103.02035346 321.13718874 -106.96475658 321.13503379 -110.90917969 321.13037109 C-115.97712503 321.1246738 -121.04501742 321.12795276 -126.11296082 321.13394356 C-129.99556887 321.13754892 -133.87816428 321.1364107 -137.76077271 321.13381577 C-139.62997443 321.13314643 -141.49917728 321.13397516 -143.36837769 321.13629532 C-145.97608504 321.13882143 -148.58370541 321.13498184 -151.19140625 321.12939453 C-151.97170197 321.13141876 -152.75199768 321.13344299 -153.55593872 321.13552856 C-158.88573747 321.11426253 -158.88573747 321.11426253 -160 320 C-160.0979644 317.07957348 -160.12991899 314.18279018 -160.12025452 311.26194763 C-160.12110894 310.33412682 -160.12196337 309.40630601 -160.12284368 308.45036942 C-160.12450133 305.31642179 -160.11897248 302.18252675 -160.11352539 299.04858398 C-160.11324355 296.81201173 -160.11340118 294.57543939 -160.1139679 292.33886719 C-160.11425601 286.24613747 -160.10835707 280.15342725 -160.10139394 274.06070209 C-160.09516267 267.70120005 -160.09455678 261.34169761 -160.09336853 254.98219299 C-160.09060883 244.30135723 -160.0843533 233.6205292 -160.07543945 222.93969727 C-160.06626605 211.93644242 -160.05918487 200.93318953 -160.05493164 189.92993164 C-160.05466892 189.25214637 -160.05440619 188.5743611 -160.05413551 187.87603687 C-160.05283051 184.47592335 -160.05156679 181.0758098 -160.05032361 177.67569625 C-160.03995013 149.45045804 -160.02151137 121.22523205 -160 93 C-184.42 93 -208.84 93 -234 93 C-234 62.31 -234 31.62 -234 0 C-183.17787385 -0.29107747 -183.17787385 -0.29107747 -161.73632812 -0.40429688 C-146.98313358 -0.48225289 -132.22995187 -0.56134449 -117.47680664 -0.64819336 C-106.72796224 -0.71146419 -95.979104 -0.77062542 -85.23021108 -0.82505554 C-79.55020819 -0.85395599 -73.87023176 -0.88477559 -68.19026756 -0.92053413 C-62.81986511 -0.95427843 -57.44945955 -0.98243679 -52.0790062 -1.00670624 C-50.13107921 -1.0164219 -48.18316025 -1.02800326 -46.2352581 -1.04183006 C-30.77963676 -1.1497533 -15.47298728 -0.5730736 0 0 Z " fill="#F2E8F7" transform="translate(259,40)"/>
<path d="M0 0 C1.09667999 -0.00419449 2.19335999 -0.00838898 3.32327271 -0.01271057 C4.52770523 -0.00709106 5.73213776 -0.00147156 6.97306824 0.00431824 C8.87654022 0.00147072 8.87654022 0.00147072 10.81846619 -0.00143433 C14.30990854 -0.00629289 17.80122349 0.001396 21.29265046 0.01151872 C24.97418197 0.02033392 28.65570985 0.01854076 32.33724976 0.01815796 C38.54904789 0.01909633 44.7607974 0.02778509 50.97257996 0.04142761 C58.07309175 0.05696826 65.17354964 0.06243221 72.27407724 0.06169206 C79.90474911 0.06100493 87.53540115 0.06803055 95.16606688 0.07713866 C97.3221563 0.07923216 99.47824233 0.07997468 101.63433266 0.08037758 C116.48925948 0.08589265 131.33816787 0.20820057 146.18742371 0.63273621 C147.41986974 0.66294515 148.65231577 0.69315409 149.92210865 0.72427845 C165.72390761 1.24136472 179.46341827 6.75159312 192.71598816 15.24723816 C193.04598816 16.23723816 193.37598816 17.22723816 193.71598816 18.24723816 C195.56570512 19.29744919 195.56570512 19.29744919 197.71598816 20.24723816 C199.96598816 21.74723816 199.96598816 21.74723816 201.71598816 23.24723816 C201.71598816 23.90723816 201.71598816 24.56723816 201.71598816 25.24723816 C198.46813135 23.79886958 196.13072688 21.96087249 193.46598816 19.62223816 C189.18992463 16.16994569 184.8318695 13.44308232 179.96598816 10.93473816 C179.35980652 10.60973328 178.75362488 10.28472839 178.1290741 9.94987488 C166.49333267 4.17991252 153.77357072 3.80031186 141.07194519 3.81486511 C139.45412967 3.80582474 137.83632095 3.79549204 136.21852112 3.78398132 C131.87236268 3.75665195 127.52633502 3.74715993 123.18010187 3.74112725 C118.6210386 3.73168022 114.06207065 3.70547225 109.50306702 3.68112183 C100.89038913 3.63762595 92.27772993 3.60897551 83.664976 3.58579844 C73.85099789 3.55865556 64.03711648 3.51475004 54.22320771 3.46950972 C34.05418672 3.37690597 13.88513677 3.3051147 -6.28401184 3.24723816 C-6.33874818 16.89542808 -6.35031288 30.54291538 -6.30735779 44.19116783 C-6.28875367 50.52927676 -6.28480168 56.86667755 -6.31477356 63.20475769 C-6.34317357 69.32597636 -6.33251212 75.44601452 -6.29521179 81.567173 C-6.28778765 83.89783615 -6.29423897 86.2285877 -6.31504822 88.55916977 C-6.98396685 102.91676767 -6.98396685 102.91676767 -1.35725403 115.53581238 C-0.02184594 116.79703535 1.33301133 118.03836545 2.71598816 119.24723816 C5.67113448 123.54285349 7.66376945 128.47258247 9.71598816 133.24723816 C10.15298035 134.2565741 10.58997253 135.26591003 11.04020691 136.30583191 C17.13017467 153.42184655 15.72818931 175.35417874 8.55973816 191.91911316 C7.68451259 193.7320804 6.71480223 195.49931354 5.71598816 197.24723816 C4.34388917 192.88989676 5.61610381 191.29701511 7.71598816 187.24723816 C15.37806796 165.58575087 11.94739742 145.55171554 2.54801941 125.25505066 C1.71598816 123.24723816 1.71598816 123.24723816 1.29020691 121.05192566 C1.10071472 120.45637878 0.91122253 119.86083191 0.71598816 119.24723816 C-0.27401184 118.91723816 -1.26401184 118.58723816 -2.28401184 118.24723816 C-3.38166809 116.68864441 -3.38166809 116.68864441 -4.34651184 114.80973816 C-5.54420582 112.5057405 -6.41554001 111.11570999 -8.28401184 109.24723816 C-8.53848743 107.33567047 -8.53848743 107.33567047 -8.54470825 104.95805359 C-8.55179306 104.0578801 -8.55887787 103.1577066 -8.56617737 102.23025513 C-8.56369995 101.24005875 -8.56122253 100.24986237 -8.55867004 99.22966003 C-8.56378098 98.18894852 -8.56889191 97.148237 -8.57415771 96.07598877 C-8.58810208 92.62259737 -8.58709344 89.16940443 -8.58479309 85.71598816 C-8.58867706 83.32467066 -8.5930111 80.93335386 -8.59777832 78.54203796 C-8.60525076 73.52496608 -8.60494162 68.50796455 -8.59968567 63.4908905 C-8.59388659 57.04750863 -8.6108279 50.60441379 -8.63403034 44.16107941 C-8.64872924 39.22156579 -8.64964469 34.28212194 -8.64652061 29.34259033 C-8.64703566 26.9662316 -8.6523075 24.58986914 -8.66233253 22.21353149 C-8.67460657 18.89710071 -8.66795982 15.58123732 -8.65632629 12.26481628 C-8.6677919 10.77952171 -8.6677919 10.77952171 -8.67948914 9.26422119 C-8.67247482 8.3640477 -8.66546051 7.46387421 -8.65823364 6.53642273 C-8.65840138 5.75180916 -8.65856913 4.96719559 -8.65874195 4.15880585 C-8.53508101 3.52798851 -8.41142008 2.89717117 -8.28401184 2.24723816 C-4.94281509 0.01977366 -3.89628546 -0.00222537 0 0 Z " fill="#9481A0" transform="translate(292.2840118408203,38.75276184082031)"/>
<path d="M0 0 C0.33 0.66 0.66 1.32 1 2 C-0.328125 4.49609375 -0.328125 4.49609375 -2.25 7.4375 C-2.87390625 8.40558594 -3.4978125 9.37367188 -4.140625 10.37109375 C-6 13 -6 13 -7.59129047 14.38787556 C-9.42941304 16.49141945 -9.38250151 17.6547582 -9.39872742 20.42289734 C-9.41753464 21.77955505 -9.41753464 21.77955505 -9.4367218 23.16362 C-9.43456917 24.64823479 -9.43456917 24.64823479 -9.43237305 26.1628418 C-9.4425647 27.20691193 -9.45275635 28.25098206 -9.46325684 29.32669067 C-9.4934969 32.78425384 -9.50266975 36.24154047 -9.51171875 39.69921875 C-9.52855724 42.09390695 -9.54670634 44.48858627 -9.56611633 46.883255 C-9.61371241 53.19118474 -9.64345971 59.49907846 -9.66955566 65.80712891 C-9.69931269 72.24193434 -9.74585966 78.67661558 -9.79101562 85.11132812 C-9.87715808 97.740818 -9.94502465 110.37033798 -10 123 C11.17578209 122.93936916 32.35144254 122.86180137 53.52708817 122.76428509 C63.36017024 122.71939389 73.19321664 122.67996392 83.02636719 122.65356445 C91.60082383 122.63053021 100.17516692 122.59707185 108.74953341 122.55129844 C113.28607517 122.52743922 117.82250499 122.50866273 122.35910797 122.50238609 C126.63715983 122.49630204 130.91492554 122.47618354 135.19287109 122.44572449 C136.75521603 122.43699714 138.31759844 122.43321056 139.87996674 122.43499184 C149.91825278 122.44281664 159.31763627 121.7947629 168.68587112 117.87668896 C171.29945826 116.88655266 172.42264605 117.04542446 175 118 C173.30246676 118.81456723 171.59092349 119.59992229 169.875 120.375 C168.92367187 120.81585938 167.97234375 121.25671875 166.9921875 121.7109375 C156.24152739 125.69180826 144.15023314 125.28872064 132.84667969 125.24291992 C131.28137635 125.24399587 129.71607341 125.24593918 128.15077209 125.24867249 C123.94701509 125.25346924 119.74336624 125.24593414 115.53962231 125.23571944 C111.12702262 125.22686862 106.71442561 125.22869763 102.30181885 125.2290802 C94.90838837 125.22814771 87.51499929 125.21951388 80.12158203 125.20581055 C71.57008671 125.19001956 63.01863641 125.18481506 54.46712756 125.1855461 C45.34753634 125.1862204 36.22796249 125.17929394 27.1083765 125.1700995 C24.48214973 125.16796694 21.85592574 125.1672582 19.22969818 125.16686058 C15.11576111 125.16585893 11.00186207 125.15977706 6.88793755 125.14969444 C5.37618937 125.14676607 3.86443683 125.14554475 2.35268593 125.14612198 C0.29593514 125.14661031 -1.76070801 125.1409808 -3.81744385 125.13371277 C-5.54618429 125.131199 -5.54618429 125.131199 -7.30984879 125.12863445 C-10 125 -10 125 -12 124 C-12.16246094 110.22181791 -12.28670751 96.4438651 -12.3626852 82.6649189 C-12.39915796 76.26617636 -12.44860164 69.86809095 -12.52807617 63.46972656 C-12.60434513 57.29050142 -12.64603507 51.11190682 -12.6641407 44.93224716 C-12.67703709 42.57915196 -12.70222124 40.2260898 -12.7401104 37.87326431 C-13.08519606 15.54876088 -13.08519606 15.54876088 -6.79408264 8.73312378 C-6.20203537 8.16119293 -5.6099881 7.58926208 -5 7 C-3.99530655 5.64354011 -3.01363492 4.26953746 -2.0625 2.875 C-1.381875 1.92625 -0.70125 0.9775 0 0 Z " fill="#E9DDEF" transform="translate(296,236)"/>
<path d="M0 0 C1.43209242 0.00081715 1.43209242 0.00081715 2.893116 0.00165081 C4.53607399 -0.00464092 4.53607399 -0.00464092 6.21222305 -0.01105976 C8.02426476 -0.0026305 8.02426476 -0.0026305 9.87291336 0.00596905 C11.14174866 0.0040707 12.41058395 0.00217236 13.7178688 0.00021648 C17.21350231 -0.00464831 20.70900886 0.00305483 24.20462704 0.01316953 C27.88883371 0.02197613 31.57303668 0.02019172 35.25725174 0.01980877 C41.4750262 0.02074762 47.69275212 0.02944227 53.91051102 0.04307842 C61.01838642 0.05861296 68.12620797 0.06408328 75.23409915 0.06334287 C82.87018004 0.06265571 90.5062411 0.06968234 98.14231586 0.07878947 C100.3005907 0.08088322 102.45886216 0.08162553 104.61713791 0.08202839 C119.48298262 0.08754112 134.34282033 0.20951639 149.20299149 0.63438702 C151.0514599 0.67970043 151.0514599 0.67970043 152.93727112 0.72592926 C168.73823821 1.24307027 182.47752731 6.75371736 195.72935867 15.24888897 C196.05935867 16.23888897 196.38935867 17.22888897 196.72935867 18.24888897 C198.57907564 19.2991 198.57907564 19.2991 200.72935867 20.24888897 C202.97935867 21.74888897 202.97935867 21.74888897 204.72935867 23.24888897 C204.72935867 23.90888897 204.72935867 24.56888897 204.72935867 25.24888897 C201.48150186 23.80052039 199.14409739 21.9625233 196.47935867 19.62388897 C192.27085518 16.23985838 187.99854538 13.49268222 183.22935867 10.99888897 C182.65669266 10.68226299 182.08402664 10.36563702 181.49400711 10.03941631 C168.73658272 3.64729642 153.9128278 2.65062292 139.90660477 2.70299053 C138.31775289 2.69422287 136.72890978 2.68372622 135.1400795 2.67166424 C130.89120852 2.64417353 126.64263082 2.64039123 122.39368391 2.64138412 C117.92939018 2.63822272 113.46522248 2.61253852 109.00099564 2.58940411 C100.57613799 2.54908495 92.15135727 2.52856054 83.72641814 2.51543021 C74.12272931 2.49947784 64.51916987 2.46102828 54.91555667 2.42083693 C35.18686687 2.3387682 15.45818357 2.2844706 -4.27064133 2.24888897 C-2.27064133 0.24888897 -2.27064133 0.24888897 0 0 Z " fill="#FAF5FF" transform="translate(289.2706413269043,38.75111103057861)"/>
<path d="M0 0 C16.62464146 -0.17685789 28.69696276 6.83409354 40.46606445 18.24316406 C40.97226318 18.74041992 41.47846191 19.23767578 42 19.75 C42.49395264 20.23436523 42.98790527 20.71873047 43.49682617 21.21777344 C47 24.75507916 47 24.75507916 47 27 C47.66 27 48.32 27 49 27 C50.29935464 29.51712189 51.58954372 32.03829087 52.875 34.5625 C53.42220703 35.61920898 53.42220703 35.61920898 53.98046875 36.69726562 C58.01589854 44.65806803 59.48221222 52.14709185 60 61 C60.06380859 62.06154297 60.06380859 62.06154297 60.12890625 63.14453125 C60.19489515 65.4453444 60.12010892 67.70077217 60 70 C59.94457031 71.17304688 59.88914062 72.34609375 59.83203125 73.5546875 C58.71228355 89.09794392 52.05305572 101.1291375 41 112 C40.46117187 112.62003906 39.92234375 113.24007812 39.3671875 113.87890625 C29.13545523 125.37032415 13.7637963 129.98151222 -1 132 C-3.33196543 132.09009866 -5.66630028 132.13011776 -8 132.125 C-9.175625 132.12757813 -10.35125 132.13015625 -11.5625 132.1328125 C-14.79725504 132.00783333 -17.82468717 131.6098924 -21 131 C-21 130.67 -21 130.34 -21 130 C-20.32122803 129.9906543 -19.64245605 129.98130859 -18.94311523 129.97167969 C6.3931431 129.58229468 6.3931431 129.58229468 29 119 C29.77988281 118.44054687 30.55976563 117.88109375 31.36328125 117.3046875 C33.63755807 115.59993547 35.82875758 113.83376467 38 112 C38.60585938 111.49082031 39.21171875 110.98164063 39.8359375 110.45703125 C50.99414298 100.23288369 56.57844674 86.5262079 57.4453125 71.671875 C58.18865931 51.00044542 54.64970605 37.27181702 40.83984375 21.5390625 C29.84043866 9.86068178 15.41814509 4.36246781 0 1 C0 0.67 0 0.34 0 0 Z " fill="#F2DAFD" transform="translate(234,135)"/>
<path d="M0 0 C0.66 0 1.32 0 2 0 C3.15753208 1.44269053 4.3148167 2.88558048 5.47070312 4.32958984 C8.14236588 7.24777576 11.42330815 9.21328694 14.75 11.3125 C21.96850133 15.96850133 21.96850133 15.96850133 23 17 C23.09520906 19.83040672 23.12553631 22.63634993 23.11352539 25.46704102 C23.11367142 26.35476196 23.11381744 27.24248291 23.1139679 28.15710449 C23.11326843 31.10606284 23.10547448 34.05495887 23.09765625 37.00390625 C23.09579219 39.04271917 23.09436823 41.08153254 23.09336853 43.12034607 C23.08954241 48.49784574 23.07971132 53.87531858 23.06866455 59.25280762 C23.05665834 65.69883418 23.05204864 72.1448697 23.04621124 78.59090424 C23.03649962 88.39395484 23.01734372 98.19694653 23 108 C-4.72 108 -32.44 108 -61 108 C-61 107.67 -61 107.34 -61 107 C-33.94 107 -6.88 107 21 107 C21.14197972 91.37659274 21.14197972 91.37659274 21.18164062 75.75390625 C21.17514019 69.37808711 21.18042844 63.00385035 21.25708008 56.62841797 C21.31815463 51.48595276 21.3253859 46.34593143 21.29583168 41.20321655 C21.29393316 39.24482661 21.31119462 37.2863183 21.34822655 35.32827759 C21.90095069 24.53411439 21.90095069 24.53411439 17.6468811 15.10473633 C14.84649124 13.04835225 12.11143387 11.53044193 9 10 C7.24783662 8.76106569 5.51447827 7.4945213 3.8125 6.1875 C3.07644531 5.64480469 2.34039062 5.10210937 1.58203125 4.54296875 C0.79892578 3.77919922 0.79892578 3.77919922 0 3 C0 2.01 0 1.02 0 0 Z " fill="#B9ADCE" transform="translate(162,252)"/>
<path d="M0 0 C0.33 0 0.66 0 1 0 C0.96519531 1.1859375 0.93039062 2.371875 0.89453125 3.59375 C0.48291857 23.39232009 3.09960715 40.15214521 16.5 55.5 C17.97580084 57.02381491 19.47470587 58.52572804 21 60 C21.6703125 60.65613281 22.340625 61.31226563 23.03125 61.98828125 C36.37287831 74.35046462 52.95576005 76.21215559 70.5 76.0625 C72.01980469 76.05573242 72.01980469 76.05573242 73.5703125 76.04882812 C76.04693827 76.03714593 78.52343657 76.02076582 81 76 C81 75.34 81 74.68 81 74 C81.8353125 73.81824219 81.8353125 73.81824219 82.6875 73.6328125 C87.81564662 72.50669922 92.91192278 71.29514693 98 70 C98 69.34 98 68.68 98 68 C99.98 68.495 99.98 68.495 102 69 C97.71166218 72.13780816 94.18146574 73.57763686 89 75 C88.67 75.66 88.34 76.32 88 77 C70.62754371 82.54494212 51.36941274 80.990493 35 73 C34.23945313 72.649375 33.47890625 72.29875 32.6953125 71.9375 C18.46183503 64.47075772 7.32699791 51.04847769 2 36 C-0.23809927 28.56081174 -1.1409435 21.20995661 -1.125 13.4375 C-1.12757813 12.17808594 -1.13015625 10.91867188 -1.1328125 9.62109375 C-1.0116308 6.31711034 -0.62922955 3.24103157 0 0 Z " fill="#CF9EF2" transform="translate(440,187)"/>
<path d="M0 0 C0.33 0 0.66 0 1 0 C2.26305335 5.07476794 3.27036084 9.72796354 3 15 C-0.3062642 16.98385615 -2.71654183 17.21661285 -6.54296875 17.125 C-7.61740234 17.10953125 -8.69183594 17.0940625 -9.79882812 17.078125 C-12.03842188 17.02649171 -14.27800549 16.97441629 -16.51757812 16.921875 C-37.28120716 16.6247211 -56.05049926 26.07658978 -71.14453125 39.95703125 C-72.91175377 41.90283625 -73.97797809 43.59365211 -75 46 C-75.66 46 -76.32 46 -77 46 C-77.268125 46.804375 -77.53625 47.60875 -77.8125 48.4375 C-78.204375 49.283125 -78.59625 50.12875 -79 51 C-80.485 51.495 -80.485 51.495 -82 52 C-83.1034548 54.76117359 -83.1034548 54.76117359 -84 58 C-84.81452735 60.02848638 -85.64802702 62.04945409 -86.5 64.0625 C-87.33515426 66.04089897 -88.16857319 68.02003167 -89 70 C-89.35835938 70.80953125 -89.71671875 71.6190625 -90.0859375 72.453125 C-94.69584085 85.29781297 -93.07209472 99.71368332 -92 113 C-97.71160477 104.43259285 -96.01007623 88.45859982 -94.38671875 78.62890625 C-91.49960388 64.59845105 -84.66497159 51.5177632 -75 41 C-74.36320312 40.29488281 -73.72640625 39.58976562 -73.0703125 38.86328125 C-59.80929445 24.88329234 -39.73217453 14.38469917 -20.34375 13.73046875 C-13.09816302 13.62626681 -6.12110158 13.57577968 1 15 C0.505 7.575 0.505 7.575 0 0 Z " fill="#D9CEE0" transform="translate(516,106)"/>
<path d="M0 0 C0 0.33 0 0.66 0 1 C-0.92224365 0.98952637 -1.8444873 0.97905273 -2.79467773 0.96826172 C-6.25564128 0.93393237 -9.7164207 0.9089817 -13.17749023 0.89013672 C-14.6680794 0.8801533 -16.15864936 0.86656178 -17.64916992 0.84912109 C-28.65556952 0.72367101 -37.96438967 1.70641884 -48.3125 5.5625 C-55.52444948 8.23623705 -55.52444948 8.23623705 -59 9 C-59 9.66 -59 10.32 -59 11 C-60.8359375 12.19140625 -60.8359375 12.19140625 -63.375 13.5625 C-72.37968241 18.82266101 -79.05289226 25.32872648 -84.625 34.12890625 C-85.305625 35.05509766 -85.305625 35.05509766 -86 36 C-86.66 36 -87.32 36 -88 36 C-88.226875 36.763125 -88.45375 37.52625 -88.6875 38.3125 C-89.78843706 41.4056089 -91.03076994 44.22997716 -92.4375 47.1875 C-100.5549415 64.8112078 -101.52271008 85.01473686 -94.81103516 103.24487305 C-94.03548941 105.28178956 -93.24169125 107.31018025 -92.4375 109.3359375 C-91.18349663 112.53228306 -90.05201293 115.73269063 -89 119 C-96.80357375 112.42734711 -99.83519209 97.57837913 -101 88 C-102.7029055 66.35141003 -98.2174405 46.20010674 -84.5 29 C-83.01954356 27.31594938 -81.52077539 25.64773177 -80 24 C-79.38769531 23.29617187 -78.77539062 22.59234375 -78.14453125 21.8671875 C-58.85822316 0.89486954 -27.22275362 -6.99300093 0 0 Z " fill="#E1D6E6" transform="translate(243,122)"/>
<path d="M0 0 C0.33 0 0.66 0 1 0 C0.9969838 1.31021118 0.99396759 2.62042236 0.99085999 3.97033691 C0.96696574 16.32960112 0.97981737 28.68835625 1.02846622 41.04755402 C1.05230015 47.40133402 1.06327465 53.75458971 1.04467773 60.10839844 C1.02719999 66.24251395 1.04374072 72.37568833 1.08367729 78.50968933 C1.09295761 80.84757363 1.09006622 83.18553955 1.07469368 85.52339172 C1.0552214 88.80375034 1.07937581 92.081149 1.11352539 95.36132812 C1.0977092 96.3237442 1.08189301 97.28616028 1.06559753 98.27774048 C1.19247411 104.62900774 2.70813218 107.77922645 7.25463009 112.23262787 C20.00163491 125.14032207 22.5841004 144.89733601 22.4777832 162.0144043 C22.17761107 174.07257952 20.04401089 184.42298094 14 195 C12.62790101 190.6426586 13.90011565 189.04977695 16 185 C23.6620798 163.33851271 20.23140927 143.30447738 10.83203125 123.0078125 C10 121 10 121 9.57421875 118.8046875 C9.38472656 118.20914063 9.19523437 117.61359375 9 117 C8.01 116.67 7.02 116.34 6 116 C4.90234375 114.44140625 4.90234375 114.44140625 3.9375 112.5625 C2.73980602 110.25850235 1.86847183 108.86847183 0 107 C-0.24609566 105.08284569 -0.24609566 105.08284569 -0.24050903 102.69735718 C-0.24325836 101.79429337 -0.24600769 100.89122955 -0.24884033 99.96080017 C-0.24164978 98.9674617 -0.23445923 97.97412323 -0.22705078 96.95068359 C-0.22734283 95.90675949 -0.22763489 94.86283539 -0.22793579 93.78727722 C-0.22653842 90.32424715 -0.21095797 86.86143016 -0.1953125 83.3984375 C-0.19158382 81.0023307 -0.18873617 78.60622239 -0.18673706 76.21011353 C-0.17908918 69.89387831 -0.15943077 63.57773462 -0.1373291 57.26153564 C-0.11689552 50.82020303 -0.10774067 44.37885567 -0.09765625 37.9375 C-0.07618598 25.29162755 -0.04241887 12.64581863 0 0 Z " fill="#F3DEF6" transform="translate(284,41)"/>
<path d="M0 0 C0.804375 0.49242187 1.60875 0.98484375 2.4375 1.4921875 C16.8801084 10.92501611 26.95694006 23.484481 32 40 C33.26251307 46.2891855 33.11402687 52.55213201 33.0625 58.9375 C33.05798828 60.00291016 33.05347656 61.06832031 33.04882812 62.16601562 C33.03711787 64.77740291 33.02071724 67.38867124 33 70 C32.67 70 32.34 70 32 70 C31.98541748 69.39639648 31.97083496 68.79279297 31.95581055 68.17089844 C31.38653658 47.06551874 28.7770158 28.35067501 13.15234375 12.828125 C-3.88868228 -3.00930028 -22.45626052 -5.86480469 -45.05371094 -5.19238281 C-52.03879849 -4.73627998 -58.04331553 -2.5665746 -64.20703125 0.69921875 C-65.12871094 1.12847656 -66.05039062 1.55773437 -67 2 C-67.66 1.67 -68.32 1.34 -69 1 C-51.68528585 -12.74992006 -18.3566373 -11.66411328 0 0 Z " fill="#F1D5FC" transform="translate(541,142)"/>
<path d="M0 0 C5.05920021 0.40904172 9.98212003 0.94097741 14.9375 2.0625 C22.01975668 3.54999592 28.97156294 3.29908671 36.125 2.4375 C38.043125 2.2209375 38.043125 2.2209375 40 2 C40.495 2.495 40.495 2.495 41 3 C40.88138605 20.19902228 34.62061949 34.96786337 27 50 C26.34 50 25.68 50 25 50 C24.01 52.475 24.01 52.475 23 55 C22.34 55 21.68 55 21 55 C20.61714844 55.87398438 20.61714844 55.87398438 20.2265625 56.765625 C18.88258913 59.21388223 17.38189704 60.81743248 15.375 62.75 C14.74335938 63.36359375 14.11171875 63.9771875 13.4609375 64.609375 C12.73777344 65.29773438 12.73777344 65.29773438 12 66 C11.34 65.67 10.68 65.34 10 65 C10.54527344 64.51273437 11.09054687 64.02546875 11.65234375 63.5234375 C28.47442234 47.70780806 36.15173974 26.56121946 39 4 C38.30922363 4.16081055 37.61844727 4.32162109 36.90673828 4.48730469 C31.2889475 5.47817993 25.5649051 5.22707994 19.875 5.25 C17.94333984 5.2809375 17.94333984 5.2809375 15.97265625 5.3125 C14.12607422 5.32023437 14.12607422 5.32023437 12.2421875 5.328125 C10.55391846 5.34214355 10.55391846 5.34214355 8.83154297 5.35644531 C5.6331845 4.95382388 4.969149 4.43531186 3 2 C2.01 1.34 1.02 0.68 0 0 Z " fill="#C6BACF" transform="translate(478,276)"/>
<path d="M0 0 C0.33 0 0.66 0 1 0 C0.96519531 1.1859375 0.93039062 2.371875 0.89453125 3.59375 C0.48291857 23.39232009 3.09960715 40.15214521 16.5 55.5 C17.98108672 57.01867775 19.47981435 58.52046102 21 60 C21.58910156 60.62132812 22.17820312 61.24265625 22.78515625 61.8828125 C29.03944724 68.01339224 37.16076309 71.33724974 45 75 C41.97399905 75.94750285 41.21760104 76.08432778 38.1171875 74.8828125 C30.44551628 70.72347268 24.26719738 66.14854132 18 60 C17.30261719 59.40960938 16.60523438 58.81921875 15.88671875 58.2109375 C5.41649584 48.98087691 0.49296557 34.54333054 -1 21 C-1.08914302 18.48039878 -1.13017164 15.95867236 -1.125 13.4375 C-1.12757813 12.17808594 -1.13015625 10.91867188 -1.1328125 9.62109375 C-1.0116308 6.31711034 -0.62922955 3.24103157 0 0 Z " fill="#F5DEFE" transform="translate(440,187)"/>
<path d="M0 0 C0 0.33 0 0.66 0 1 C-1.29292969 1.09796875 -2.58585937 1.1959375 -3.91796875 1.296875 C-26.4741044 3.16822139 -44.73434708 9.6206413 -60 27 C-63.8184836 32.0566295 -66.35156628 37.70389706 -68.88671875 43.484375 C-69.86413995 45.69300396 -70.90007953 47.85038374 -72 50 C-72.6075027 41.46911108 -67.85622466 33.70957824 -62.77734375 27.11328125 C-60.58799006 24.6610549 -58.32830161 22.31995644 -56 20 C-55.42507812 19.36578125 -54.85015625 18.7315625 -54.2578125 18.078125 C-39.70197216 2.33831678 -20.42038786 -0.55861243 0 0 Z " fill="#F7E1FE" transform="translate(233,134)"/>
<path d="M0 0 C0.33 0.66 0.66 1.32 1 2 C-0.328125 4.49609375 -0.328125 4.49609375 -2.25 7.4375 C-2.87390625 8.40558594 -3.4978125 9.37367188 -4.140625 10.37109375 C-6 13 -6 13 -7.59129047 14.38787556 C-9.42941304 16.49141945 -9.38250151 17.6547582 -9.39872742 20.42289734 C-9.41126556 21.32733582 -9.42380371 22.23177429 -9.4367218 23.16362 C-9.43528671 24.15336319 -9.43385162 25.14310638 -9.43237305 26.1628418 C-9.4425647 27.20691193 -9.45275635 28.25098206 -9.46325684 29.32669067 C-9.4934969 32.78425384 -9.50266975 36.24154047 -9.51171875 39.69921875 C-9.52855724 42.09390695 -9.54670634 44.48858627 -9.56611633 46.883255 C-9.61371241 53.19118474 -9.64345971 59.49907846 -9.66955566 65.80712891 C-9.69931269 72.24193434 -9.74585966 78.67661558 -9.79101562 85.11132812 C-9.87715808 97.740818 -9.94502465 110.37033798 -10 123 C-10.33 123 -10.66 123 -11 123 C-11.09348304 109.00496879 -11.16373251 95.00998606 -11.20724869 81.01470661 C-11.22813313 74.51628613 -11.2564671 68.01807524 -11.30175781 61.51977539 C-11.34518397 55.24984359 -11.36913065 48.98011353 -11.37950897 42.71004295 C-11.38690607 40.31659964 -11.40135063 37.9231675 -11.42292023 35.52980995 C-11.45191031 32.18019275 -11.45595771 28.8314117 -11.45410156 25.48168945 C-11.46848267 24.48978607 -11.48286377 23.49788269 -11.49768066 22.47592163 C-11.45708194 15.71567717 -11.45708194 15.71567717 -9.09173584 12.01213074 C-8.40146301 11.34812759 -7.71119019 10.68412445 -7 10 C-5.73551183 8.23948293 -4.48503603 6.46880197 -3.25 4.6875 C-2.63640625 3.80449219 -2.0228125 2.92148438 -1.390625 2.01171875 C-0.93171875 1.34785156 -0.4728125 0.68398437 0 0 Z " fill="#9E8CAC" transform="translate(296,236)"/>
<path d="M0 0 C13.61104296 2.15039817 24.95691196 13.41387677 33 24 C36.85545493 29.6831588 40.06393452 35.39460013 42 42 C41.56640625 44.2265625 41.56640625 44.2265625 41 46 C38.96564469 42.27034861 38 40.33094958 38 36 C37.34 36 36.68 36 36 36 C35.6596875 35.23816406 35.319375 34.47632813 34.96875 33.69140625 C27.35192015 17.46512776 15.62023531 8.94290172 0 1 C0 0.67 0 0.34 0 0 Z " fill="#B679EB" transform="translate(249,140)"/>
<path d="M0 0 C0.66 0 1.32 0 2 0 C1.5344217 3.18145171 0.95902544 6.12792821 -0.0234375 9.1953125 C-1.09687722 13.37743366 -1.30619988 17.02483661 -1.25 21.3125 C-1.23984863 22.43615967 -1.23984863 22.43615967 -1.22949219 23.58251953 C-1.06284603 32.54071963 0.83462184 40.12090183 4.09765625 48.45703125 C4.98671254 50.96255351 5.54447891 53.38427578 6 56 C-2.46904872 45.83714154 -5.15997321 30.97597153 -4 18 C-2.51901425 4.29714196 -2.51901425 4.29714196 0 0 Z " fill="#BC7BED" transform="translate(444,178)"/>
<path d="M0 0 C4.45895913 4.11596227 8.01025658 9.01538488 11.3671875 14.05078125 C15.34769658 19.84163486 20.11832987 23.24863175 26 27 C26.90363281 27.61101562 27.80726563 28.22203125 28.73828125 28.8515625 C34.5877298 32.74016337 40.36806524 35.68385792 47 38 C41.73672991 39.75442336 36.83691737 36.25639702 32 34 C29.59960471 32.74379313 27.31056538 31.41784694 25 30 C25 29.34 25 28.68 25 28 C24.26007813 27.73574219 23.52015625 27.47148437 22.7578125 27.19921875 C14.99327296 23.82285382 9.84856104 16.82499401 4.9375 10.1875 C4.20345947 9.20003784 4.20345947 9.20003784 3.45458984 8.19262695 C0 3.38401093 0 3.38401093 0 0 Z " fill="#DBD0E2" transform="translate(431,237)"/>
<path d="M0 0 C0 0.66 0 1.32 0 2 C-2.23046875 3.62109375 -2.23046875 3.62109375 -5.1875 5.4375 C-6.63189453 6.33275391 -6.63189453 6.33275391 -8.10546875 7.24609375 C-9.06066406 7.82488281 -10.01585937 8.40367187 -11 9 C-11.81597656 9.52335937 -12.63195312 10.04671875 -13.47265625 10.5859375 C-22.96720853 15.89819086 -33.36664209 16.36649208 -44 16.375 C-45.07411133 16.37653076 -46.14822266 16.37806152 -47.25488281 16.37963867 C-52.86971118 16.30099593 -57.69881011 15.88252482 -63 14 C-63 13.67 -63 13.34 -63 13 C-61.83597656 13.10828125 -61.83597656 13.10828125 -60.6484375 13.21875 C-43.1208901 14.72469679 -29.60152857 13.62931284 -13.34375 7.2421875 C-10 6 -10 6 -8 6 C-8 5.34 -8 4.68 -8 4 C-2.58823529 0 -2.58823529 0 0 0 Z " fill="#B777EB" transform="translate(269,249)"/>
<path d="M0 0 C1.04220703 -0.01160156 2.08441406 -0.02320313 3.15820312 -0.03515625 C10.66401535 -0.0072363 17.37213263 1.25720646 24.5625 3.375 C24.5625 3.705 24.5625 4.035 24.5625 4.375 C23.14547487 4.23269192 21.7288904 4.08599254 20.3125 3.9375 C19.12914062 3.81568359 19.12914062 3.81568359 17.921875 3.69140625 C15.5625 3.375 15.5625 3.375 13.67724609 2.86572266 C-0.63601612 -0.45564158 -16.5763854 3.01987446 -29.4375 9.375 C-30.77840133 10.36482898 -32.11293599 11.36341314 -33.4375 12.375 C-35.41764432 13.09851427 -37.41571315 13.77765389 -39.4375 14.375 C-29.53566726 2.76595472 -14.54142209 -0.1612727 0 0 Z " fill="#BA7AED" transform="translate(505.4375,135.625)"/>
<path d="M0 0 C11.71687418 -0.93320237 20.98764424 3.28067949 31.1875 8.5625 C31.94297119 8.95042725 32.69844238 9.33835449 33.47680664 9.73803711 C34.17926514 10.11452393 34.88172363 10.49101074 35.60546875 10.87890625 C36.23606201 11.2147876 36.86665527 11.55066895 37.51635742 11.89672852 C39 13 39 13 40 16 C41.84971696 17.05021103 41.84971696 17.05021103 44 18 C46.25 19.5 46.25 19.5 48 21 C48 21.66 48 22.32 48 23 C44.75214319 21.55163142 42.41473872 19.71363433 39.75 17.375 C27.83370542 7.79318419 14.87555479 3.61699575 0 1 C0 0.67 0 0.34 0 0 Z " fill="#CEC3D6" transform="translate(446,41)"/>
<path d="M0 0 C0.66 0.33 1.32 0.66 2 1 C1.3709375 1.4846875 0.741875 1.969375 0.09375 2.46875 C-13.79322547 13.34409224 -23.24410436 24.63472314 -28 42 C-28.33 42 -28.66 42 -29 42 C-29.56842048 35.66378352 -27.83125445 31.84205336 -24.75 26.375 C-24.35425781 25.63765625 -23.95851563 24.9003125 -23.55078125 24.140625 C-17.81272694 13.6428076 -9.55848102 6.94006734 0 0 Z " fill="#F6DEFE" transform="translate(470,144)"/>
<path d="M0 0 C0.66 0.33 1.32 0.66 2 1 C1.01 2.485 1.01 2.485 0 4 C-0.66 4 -1.32 4 -2 4 C-2.33 4.99 -2.66 5.98 -3 7 C-3.886875 7.28875 -4.77375 7.5775 -5.6875 7.875 C-10.75993538 9.5977139 -13.93749589 12.67186987 -17.25 16.8125 C-17.8275 17.534375 -18.405 18.25625 -19 19 C-19.66 19 -20.32 19 -21 19 C-21 20.65 -21 22.3 -21 24 C-22.32 24 -23.64 24 -25 24 C-23.56993467 19.37978894 -20.94614728 16.44318823 -17.5625 13.125 C-17.03479004 12.60268799 -16.50708008 12.08037598 -15.96337891 11.54223633 C-11.19942095 6.957796 -6.03259097 2.80007359 0 0 Z " fill="#B97AEB" transform="translate(195,142)"/>
<path d="M0 0 C-1.00160156 0.6290625 -2.00320313 1.258125 -3.03515625 1.90625 C-14.74724519 9.18672843 -14.74724519 9.18672843 -23 20 C-23.66 20 -24.32 20 -25 20 C-25.28875 20.804375 -25.5775 21.60875 -25.875 22.4375 C-27 25 -27 25 -29 26 C-28.03547532 17.39582748 -19.30416841 10.8642348 -12.984375 5.54296875 C-4.09864146 -1.36621382 -4.09864146 -1.36621382 0 0 Z " fill="#E0D7E5" transform="translate(464,132)"/>
<path d="M0 0 C0.33 0 0.66 0 1 0 C2.02362205 30.46456693 2.02362205 30.46456693 -7 44 C-7.93065133 41.39417629 -8.14917407 40.35801776 -7.0625 37.75 C-6.711875 37.1725 -6.36125 36.595 -6 36 C-5.34 36 -4.68 36 -4 36 C-4.061875 35.01 -4.12375 34.02 -4.1875 33 C-4.20313003 29.85523877 -3.79822479 28.51058779 -2.53125 25.4375 C-0.539859 20.35800991 -0.44294201 15.40402615 -0.3125 10 C-0.27833984 9.03449219 -0.24417969 8.06898438 -0.20898438 7.07421875 C-0.12727301 4.71626218 -0.05787881 2.35864137 0 0 Z " fill="#BA78ED" transform="translate(291,190)"/>
<path d="M0 0 C0.33 0 0.66 0 1 0 C0.50333931 10.09876738 -3.55280273 20.10501106 -10 28 C-10.66 28 -11.32 28 -12 28 C-12.66 29.32 -13.32 30.64 -14 32 C-14.99 32 -15.98 32 -17 32 C-16.48050781 31.39414063 -15.96101562 30.78828125 -15.42578125 30.1640625 C-7.65917529 20.83265054 -3.55247455 11.55050385 0 0 Z " fill="#F5DEFD" transform="translate(572,213)"/>
<path d="M0 0 C4.11752209 -0.32294291 6.31762466 -0.45491689 9.8125 1.875 C11.21788731 3.24023339 12.61454417 4.61454417 14 6 C15.85483454 6.60713803 17.73421385 7.14131052 19.625 7.625 C21.12933594 8.01558594 21.12933594 8.01558594 22.6640625 8.4140625 C23.82035156 8.70410156 23.82035156 8.70410156 25 9 C19.04308614 11.02729469 12.78706717 8.29414036 7.31640625 5.75390625 C1.23829409 2.47658817 1.23829409 2.47658817 0 0 Z " fill="#E3BFF9" transform="translate(188,255)"/>
<path d="M0 0 C4.98719101 0.4032197 9.86141407 0.911843 14.75 2 C21.09980571 3.35922359 27.5294783 3.6457063 34 4 C34 4.33 34 4.66 34 5 C30.06739056 5.07421454 26.13505278 5.12863136 22.2019043 5.16479492 C20.20672299 5.18728333 18.21173787 5.22540198 16.21679688 5.26367188 C14.96318359 5.27333984 13.70957031 5.28300781 12.41796875 5.29296875 C11.26063232 5.3086792 10.1032959 5.32438965 8.91088867 5.34057617 C5.64826063 4.95884623 4.99094682 4.48669976 3 2 C2.01 1.34 1.02 0.68 0 0 Z " fill="#A998B7" transform="translate(478,276)"/>
<path d="M0 0 C1.72208931 2.58313397 2.41629559 4.06763289 3.25 6.9375 C5.75838468 14.7570053 9.71879379 22.01755654 14 29 C10.50490116 27.59307462 9.21519054 26.20107895 7.5 22.875 C7.08234375 22.06675781 6.6646875 21.25851563 6.234375 20.42578125 C5.82703125 19.62527344 5.4196875 18.82476562 5 18 C4.61328125 17.33355469 4.2265625 16.66710937 3.828125 15.98046875 C0.89680116 10.76568612 0.24335874 5.93795323 0 0 Z " fill="#F5E1FD" transform="translate(160,213)"/>
<path d="M0 0 C8.49130973 3.25403933 13.82485808 14.9435567 17.3203125 22.72265625 C18 25 18 25 17 28 C16.443125 26.87722656 15.88625 25.75445312 15.3125 24.59765625 C11.37564395 16.82373222 7.67589532 9.78437136 1.43359375 3.56640625 C0 2 0 2 0 0 Z " fill="#DED3E3" transform="translate(494,64)"/>
<path d="M0 0 C0.66 0 1.32 0 2 0 C0.125 5.75 0.125 5.75 -1 8 C-1.66 8 -2.32 8 -3 8 C-3.66 9.65 -4.32 11.3 -5 13 C-5.66 13 -6.32 13 -7 13 C-7.25523437 13.58265625 -7.51046875 14.1653125 -7.7734375 14.765625 C-9.11741087 17.21388223 -10.61810296 18.81743248 -12.625 20.75 C-13.57246094 21.67039062 -13.57246094 21.67039062 -14.5390625 22.609375 C-15.02117187 23.06828125 -15.50328125 23.5271875 -16 24 C-16.66 23.67 -17.32 23.34 -18 23 C-17.18208984 22.26910156 -17.18208984 22.26910156 -16.34765625 21.5234375 C-10.8393145 16.34465466 -6.76915665 10.97385423 -2.92016602 4.52294922 C-1.99280212 2.98656078 -1.00179502 1.48892578 0 0 Z " fill="#EAE2EF" transform="translate(506,318)"/>
<path d="M0 0 C0.66 0 1.32 0 2 0 C-0.06442214 4.92124875 -3.49214929 6.48859635 -8 9 C-8.70253906 9.39832031 -9.40507813 9.79664063 -10.12890625 10.20703125 C-13.86571733 12.21370589 -16.64125576 13.54484303 -21 13 C-19.55050439 10.10100879 -17.38256563 10.0778542 -14.47265625 9.05859375 C-9.52334106 6.93969262 -3.83497034 3.83497034 0 0 Z " fill="#F4DEFD" transform="translate(549,250)"/>
<path d="M0 0 C0.66 0 1.32 0 2 0 C3.15598931 1.44128832 4.31176053 2.88275222 5.46630859 4.32519531 C8.15825421 7.26482393 11.46453394 9.25408753 14.8125 11.375 C15.85180664 12.04982422 15.85180664 12.04982422 16.91210938 12.73828125 C18.60252035 13.83413388 20.30049595 14.91830308 22 16 C19 17 19 17 17.08984375 16.06640625 C4.01302632 6.92924707 4.01302632 6.92924707 0 3 C0 2.01 0 1.02 0 0 Z " fill="#D8CEDF" transform="translate(162,252)"/>
<path d="M0 0 C3.82276318 3.53837077 6.40228669 6.98320474 8.875 11.5625 C9.79925781 13.23505859 9.79925781 13.23505859 10.7421875 14.94140625 C12 18 12 18 11.6953125 20.40234375 C11.46585937 20.92957031 11.23640625 21.45679688 11 22 C10.18247697 20.41925436 9.37118003 18.83528777 8.5625 17.25 C8.11003906 16.36828125 7.65757812 15.4865625 7.19140625 14.578125 C6 12 6 12 5.52734375 9.734375 C5.35332031 9.16203125 5.17929687 8.5896875 5 8 C4.01 7.67 3.02 7.34 2 7 C0.35179805 4.39757586 0 3.13751221 0 0 Z " fill="#E6DEEA" transform="translate(288,150)"/>
<path d="M0 0 C5.1576857 1.41836357 9.79975258 3.67391575 14 7 C14 7.66 14 8.32 14 9 C14.5775 9.268125 15.155 9.53625 15.75 9.8125 C18.05550043 11.02929189 20.02056192 12.30333879 22 14 C22 14.66 22 15.32 22 16 C18.64227134 14.49826356 16.07039961 12.53633598 13.25 10.1875 C10.06008619 7.58445461 6.89250653 5.20304668 3.375 3.0625 C2.26125 2.381875 1.1475 1.70125 0 1 C0 0.67 0 0.34 0 0 Z " fill="#E2D9E9" transform="translate(472,48)"/>
<path d="M0 0 C-1.89332534 0.81832722 -3.78977733 1.62942268 -5.6875 2.4375 C-7.27111328 3.11619141 -7.27111328 3.11619141 -8.88671875 3.80859375 C-13.09467111 5.41891429 -16.81941387 6.138654 -21.3125 6.0625 C-23.1378125 6.0315625 -23.1378125 6.0315625 -25 6 C-21.77348222 4.20491097 -18.65121321 3.33269008 -15.0625 2.5 C-12.01331836 1.7907087 -9.23933909 1.10526652 -6.37109375 -0.15625 C-3.73256965 -1.09516467 -2.5841645 -0.95709796 0 0 Z " fill="#E1D6E7" transform="translate(471,354)"/>
<path d="M0 0 C0 0.33 0 0.66 0 1 C-1.21558594 1.13277344 -2.43117187 1.26554688 -3.68359375 1.40234375 C-5.26825484 1.58050091 -6.8528889 1.75889875 -8.4375 1.9375 C-9.64116211 2.06801758 -9.64116211 2.06801758 -10.86914062 2.20117188 C-14.75576664 2.30548394 -14.75576664 2.30548394 -18 4 C-19.51928038 4.07179964 -21.04167482 4.08392007 -22.5625 4.0625 C-23.38878906 4.05347656 -24.21507812 4.04445312 -25.06640625 4.03515625 C-25.70449219 4.02355469 -26.34257812 4.01195312 -27 4 C-26.67 3.34 -26.34 2.68 -26 2 C-17.5348061 -0.40168373 -8.71652895 -0.23209692 0 0 Z " fill="#BF85EE" transform="translate(234,135)"/>
<path d="M0 0 C0 0.33 0 0.66 0 1 C-1.59328125 1.36351562 -1.59328125 1.36351562 -3.21875 1.734375 C-10.67690186 3.48741968 -17.22161088 5.33966987 -24 9 C-24.66 8.67 -25.32 8.34 -26 8 C-18.49356903 1.94642664 -9.50178542 -0.22623299 0 0 Z " fill="#F8E3FE" transform="translate(498,135)"/>
<path d="M0 0 C4.36056804 4.36056804 5.68415076 12.68836861 6.2578125 18.703125 C6.25145385 20.47082873 6.14096684 22.23791452 6 24 C4.03188948 21.04783422 3.58402388 19.58213881 3 16.1875 C2.45497744 13.21150382 1.85185772 10.5638033 0.875 7.6875 C-0.01436017 4.95589378 -0.16770187 2.85093177 0 0 Z " fill="#CABCD3" transform="translate(300,170)"/>
<path d="M0 0 C0.66 0 1.32 0 2 0 C2.66 0.99 3.32 1.98 4 3 C5.134375 3.598125 6.26875 4.19625 7.4375 4.8125 C11.15582061 6.80335083 12.46787348 9.03449607 14 13 C10.08158173 11.69386058 7.67359191 10.16870152 5 7 C5 6.34 5 5.68 5 5 C4.360625 4.731875 3.72125 4.46375 3.0625 4.1875 C1 3 1 3 0 0 Z " fill="#E0BEF7" transform="translate(174,242)"/>
<path d="M0 0 C0.66 0 1.32 0 2 0 C3.03516348 2.24435445 4.05314977 4.49406867 5.0625 6.75 C5.50432617 7.70132813 5.50432617 7.70132813 5.95507812 8.671875 C8.07081639 13.45095438 8.07081639 13.45095438 7.68359375 16.453125 C7.45800781 16.96359375 7.23242188 17.4740625 7 18 C4.96564469 14.27034861 4 12.33094958 4 8 C3.34 8 2.68 8 2 8 C0.74335022 5.09399739 0 3.20395416 0 0 Z " fill="#BF83EB" transform="translate(283,168)"/>
<path d="M0 0 C5.07434458 4.68401038 9.91435882 10.32594822 12 17 C6.72299376 13.48199584 3.14744601 8.43319931 0 3 C0 2.01 0 1.02 0 0 Z " fill="#E8DFED" transform="translate(431,237)"/>
<path d="M0 0 C0.33 0.66 0.66 1.32 1 2 C-0.2578125 4.4609375 -0.2578125 4.4609375 -2.125 7.375 C-3.02605469 8.80972656 -3.02605469 8.80972656 -3.9453125 10.2734375 C-6.04316953 13.0572858 -8.19510277 14.95213386 -11 17 C-9.3189585 13.3650778 -7.16668 10.13401865 -4.9375 6.8125 C-4.22464844 5.74644531 -3.51179688 4.68039063 -2.77734375 3.58203125 C-1 1 -1 1 0 0 Z " fill="#ECE4F1" transform="translate(296,236)"/>
<path d="M0 0 C3.79379058 1.49041773 5.68343758 3.69062512 8 7 C8 7.66 8 8.32 8 9 C8.66 9 9.32 9 10 9 C10 9.66 10 10.32 10 11 C10.66 11.33 11.32 11.66 12 12 C10.0625 11.6875 10.0625 11.6875 8 11 C7.67 10.01 7.34 9.02 7 8 C6.01 7.67 5.02 7.34 4 7 C2.41034429 4.78298853 1.27672514 2.42137527 0 0 Z " fill="#B77AEC" transform="translate(169,234)"/>
<path d="M0 0 C0.33 0 0.66 0 1 0 C0.69343615 6.62177926 -0.74288723 11.22125154 -4 17 C-4.98875764 13.90100795 -5.13666571 13.29285509 -3.6875 10.1875 C-3.130625 9.135625 -2.57375 8.08375 -2 7 C-1.22646823 4.68406453 -0.61500941 2.36542081 0 0 Z " fill="#E4DAE9" transform="translate(302,219)"/>
<path d="M0 0 C3.89006773 1.38780795 6.96558708 3.2152227 10.3125 5.625 C11.19550781 6.25664062 12.07851563 6.88828125 12.98828125 7.5390625 C13.65214844 8.02117187 14.31601562 8.50328125 15 9 C12 9 12 9 9 8 C9 7.34 9 6.68 9 6 C7.6078125 5.566875 7.6078125 5.566875 6.1875 5.125 C3 4 3 4 0 2 C0 1.34 0 0.68 0 0 Z " fill="#B878E7" transform="translate(534,141)"/>
<path d="M0 0 C6.78082192 5.42465753 6.78082192 5.42465753 9 9 C9 9.66 9 10.32 9 11 C8.34 11 7.68 11 7 11 C7 10.34 7 9.68 7 9 C6.401875 8.773125 5.80375 8.54625 5.1875 8.3125 C2.40651597 6.64390958 1.4358084 4.8716168 0 2 C0 1.34 0 0.68 0 0 Z " fill="#BA7AEE" transform="translate(554,155)"/>
<path d="M0 0 C-3.96 2.64 -7.92 5.28 -12 8 C-12 7.01 -12 6.02 -12 5 C-10.13671875 3.359375 -10.13671875 3.359375 -7.6875 1.75 C-6.88699219 1.20859375 -6.08648437 0.6671875 -5.26171875 0.109375 C-3 -1 -3 -1 0 0 Z " fill="#ECE3F0" transform="translate(464,132)"/>
<path d="M0 0 C-0.33 3.3 -0.66 6.6 -1 10 C-1.33 10 -1.66 10 -2 10 C-2 7.03 -2 4.06 -2 1 C-4.64 1 -7.28 1 -10 1 C-10 0.67 -10 0.34 -10 0 C-3.375 -1.125 -3.375 -1.125 0 0 Z " fill="#E4DEE8" transform="translate(519,279)"/>
<path d="M0 0 C6.625 -0.125 6.625 -0.125 10 1 C10 1.66 10 2.32 10 3 C3.375 3.125 3.375 3.125 0 2 C0 1.34 0 0.68 0 0 Z " fill="#4D3461" transform="translate(240,120)"/>
<path d="M0 0 C0.66 0 1.32 0 2 0 C2.33 3.3 2.66 6.6 3 10 C2.01 9.67 1.02 9.34 0 9 C0 6.03 0 3.06 0 0 Z " fill="#492D5C" transform="translate(141,210)"/>
<path d="M0 0 C1.19692469 3.59077406 0.73508446 4.24312273 -0.8125 7.5625 C-1.34810547 8.74005859 -1.34810547 8.74005859 -1.89453125 9.94140625 C-3 12 -3 12 -5 14 C-4.46515599 8.65155992 -2.53309233 4.64203897 0 0 Z " fill="#B979EA" transform="translate(167,170)"/>
<path d="M0 0 C0.66 0 1.32 0 2 0 C0.90931332 3.77545388 0.0916909 6.47043472 -3 9 C-3.66 8.67 -4.32 8.34 -5 8 C-4.21718695 6.66144944 -3.42348123 5.32926356 -2.625 4 C-2.18414062 3.2575 -1.74328125 2.515 -1.2890625 1.75 C-0.86367188 1.1725 -0.43828125 0.595 0 0 Z " fill="#DCD2E2" transform="translate(506,318)"/>
<path d="M0 0 C-0.33 2.31 -0.66 4.62 -1 7 C-1.33 7 -1.66 7 -2 7 C-2 5.35 -2 3.7 -2 2 C-4.64 2 -7.28 2 -10 2 C-10 1.67 -10 1.34 -10 1 C-6.59437148 0.22157062 -3.49234244 -0.09978121 0 0 Z " fill="#3B224E" transform="translate(517,280)"/>
<path d="M0 0 C0.66 0 1.32 0 2 0 C3.54296875 1.64453125 3.54296875 1.64453125 5.1875 3.8125 C5.73792969 4.52019531 6.28835937 5.22789062 6.85546875 5.95703125 C7.23316406 6.63121094 7.61085937 7.30539063 8 8 C7.67 8.99 7.34 9.98 7 11 C5.82750647 9.54634731 4.66216184 8.08692581 3.5 6.625 C2.52546875 5.40683594 2.52546875 5.40683594 1.53125 4.1640625 C0 2 0 2 0 0 Z " fill="#EDE5F2" transform="translate(154,241)"/>
<path d="M0 0 C3.39417765 3.12621626 5.6062718 5.56541027 7 10 C3.45418941 8.1337839 1.3289144 6.8659328 0 3 C0 2.01 0 1.02 0 0 Z " fill="#D7CADC" transform="translate(288,150)"/>
<path d="M0 0 C1.33897583 0.95043374 2.67105427 1.91059147 4 2.875 C5.11375 3.67550781 5.11375 3.67550781 6.25 4.4921875 C6.8275 4.98976563 7.405 5.48734375 8 6 C8 6.66 8 7.32 8 8 C7.4225 7.690625 6.845 7.38125 6.25 7.0625 C4.15705816 6.07416636 2.25464725 5.4831387 0 5 C0 3.35 0 1.7 0 0 Z " fill="#432856" transform="translate(486,58)"/>
<path d="M0 0 C3.99996286 1.33332095 4.83782337 3.4957827 7 7 C5.68 6.67 4.36 6.34 3 6 C3 5.34 3 4.68 3 4 C2.01 3.67 1.02 3.34 0 3 C0 2.01 0 1.02 0 0 Z " fill="#482F5C" transform="translate(435,247)"/>
<path d="M0 0 C4.8 3.32307692 4.8 3.32307692 5.8125 6.75 C5.874375 7.4925 5.93625 8.235 6 9 C0.42857143 3.85714286 0.42857143 3.85714286 0 0 Z " fill="#412752" transform="translate(286,145)"/>
<path d="M0 0 C3.98671063 1.36687222 6.88494633 3.15195093 10 6 C10 6.66 10 7.32 10 8 C6.05205855 6.32971708 3.18203882 3.8204435 0 1 C0 0.67 0 0.34 0 0 Z " fill="#D3C7DC" transform="translate(484,56)"/>
<path d="M0 0 C0.66 0.33 1.32 0.66 2 1 C1.01 2.485 1.01 2.485 0 4 C-0.66 4 -1.32 4 -2 4 C-2.33 4.99 -2.66 5.98 -3 7 C-3.99 6.67 -4.98 6.34 -6 6 C-5.01 5.67 -4.02 5.34 -3 5 C-3 4.01 -3 3.02 -3 2 C-2.01 1.34 -1.02 0.68 0 0 Z " fill="#BB75F4" transform="translate(195,142)"/>
<path d="M0 0 C2.97 0.495 2.97 0.495 6 1 C3.61426621 2.89213369 1.92824652 4.02391783 -1 5 C-0.67 3.35 -0.34 1.7 0 0 Z " fill="#45285A" transform="translate(185,125)"/>
</svg>
